<svg height="512pt" viewBox="0 0 512 512.00191" width="512pt" xmlns="http://www.w3.org/2000/svg"><path d="m475.367188 190.324219c-22.953126-71.152344 36.632812-190.324219 36.632812-190.324219s-70.621094 35.308594-256 35.308594-256-35.308594-256-35.308594 59.585938 119.171875 36.636719 190.324219c0 .046875-.039063.085937-.089844.085937-23.632813 44.71875-36.167969 94.460938-36.546875 145.039063 0 114.582031 71.152344 176.550781 158.898438 176.550781 19.773437.09375 39.410156-3.3125 57.996093-10.0625 12.488281-4.804688 25.726563-7.375 39.105469-7.59375 13.378906.21875 26.617188 2.789062 39.105469 7.59375 18.589843 6.75 38.222656 10.15625 58 10.0625 87.746093 0 158.894531-61.96875 158.894531-176.550781-.375-50.578125-12.910156-100.320313-36.546875-145.039063-.046875 0-.085937-.039062-.085937-.085937zm0 0" fill="#ecf0f1"/><path d="m475.453125 190.410156c23.636719 44.71875 36.171875 94.460938 36.546875 145.039063 0 114.582031-71.148438 176.550781-158.894531 176.550781-19.777344.09375-39.410157-3.3125-58-10.0625-12.488281-4.804688-25.726563-7.375-39.105469-7.59375-13.378906.21875-26.617188 2.789062-39.105469 7.59375-18.585937 6.75-38.222656 10.15625-57.996093 10.0625-87.746094 0-158.898438-61.96875-158.898438-176.550781.378906-50.578125 12.914062-100.320313 36.546875-145.039063.050781 0 .089844-.039062.089844-.085937 27.453125-51.113281 67.882812-88.542969 113.519531-92.78125l-.085938-.441407c-61.792968-8.824218-150.070312-97.101562-150.070312-97.101562s70.621094 35.308594 256 35.308594 256-35.308594 256-35.308594-88.273438 88.277344-150.066406 97.101562l-.089844.441407c45.636719 4.238281 86.070312 41.667969 113.523438 92.78125 0 .046875.039062.085937.085937.085937zm0 0" fill="#ecf0f1"/><path d="m150.15625 97.542969c-45.636719 4.238281-86.066406 41.667969-113.519531 92.78125 22.949219-71.152344-36.636719-190.324219-36.636719-190.324219s88.277344 88.277344 150.070312 97.101562zm0 0" fill="#ff5364"/><path d="m475.367188 190.324219c-27.453126-51.113281-67.886719-88.542969-113.523438-92.78125l.089844-.441407c61.792968-8.824218 150.066406-97.101562 150.066406-97.101562s-59.585938 119.171875-36.632812 190.324219zm0 0" fill="#ff5364"/><path d="m256 406.070312c-4.875 0-8.828125-3.953124-8.828125-8.828124v-35.3125c0-4.875 3.953125-8.828126 8.828125-8.828126s8.828125 3.953126 8.828125 8.828126v35.3125c0 4.875-3.953125 8.828124-8.828125 8.828124zm0 0" fill="#95a5a5"/><path d="m201.710938 258.03125c-2.234376-15.65625-9.851563-30.042969-21.539063-40.695312-8.648437-7.296876-19.226563-11.925782-30.453125-13.332032-11.539062-1.480468-23.242188-.972656-34.605469 1.503906-2.976562.574219-5.445312 2.644532-6.53125 5.472657-5.828125 15.183593-9.359375 49.34375 18.625 69.824219 9.953125 7.46875 22.070313 11.5 34.515625 11.476562 13.316406-.265625 26.300782-4.207031 37.515625-11.386719 2.300781-1.550781 3.714844-4.113281 3.796875-6.886719.089844-5.355468-.351562-10.707031-1.324218-15.976562zm0 0" fill="#fff"/><path d="m403.511719 210.980469c-1.136719-2.796875-3.585938-4.84375-6.535157-5.472657-27.71875-5.476562-49.609374-1.503906-65.148437 11.828126-1.324219 1.148437-2.558594 2.292968-3.707031 3.441406-6.15625 6.472656-10.878906 14.175781-13.859375 22.597656-3.558594 9.820312-5.351563 20.191406-5.296875 30.632812.085937 2.773438 1.5 5.335938 3.796875 6.886719 11.21875 7.179688 24.203125 11.121094 37.519531 11.386719 12.445312.035156 24.566406-3.996094 34.515625-11.476562 28.070313-20.480469 24.449219-54.640626 18.714844-69.824219zm0 0" fill="#fff"/><path d="m297.933594 331.300781-34.957032 36.632813c-3.875 3.796875-10.074218 3.796875-13.949218 0l-34.957032-36.632813c-1.867187-1.835937-2.609374-4.53125-1.941406-7.0625 1.089844-3.976562 4.800782-6.65625 8.914063-6.445312h69.914062c.5625-.015625 1.121094.011719 1.679688.089843 3.476562.453126 6.335937 2.964844 7.238281 6.355469.664062 2.53125-.074219 5.226563-1.941406 7.0625zm0 0" fill="#df4d60"/><path d="m299.875 324.238281c-.324219 1.054688-1.011719 1.964844-1.941406 2.558594l-34.957032 24.363281c-4.296874 2.5625-9.652343 2.5625-13.949218 0l-34.957032-24.363281c-.933593-.59375-1.621093-1.503906-1.941406-2.558594 1.089844-3.976562 4.800782-6.65625 8.914063-6.445312h69.914062c.5625-.015625 1.121094.011719 1.679688.089843 3.476562.453126 6.335937 2.964844 7.238281 6.355469zm0 0" fill="#ff5364"/><path d="m273.65625 331.035156c0-4.875-7.90625-8.828125-17.65625-8.828125s-17.652344 3.953125-17.652344 8.828125 7.902344 8.828125 17.652344 8.828125 17.65625-3.953125 17.65625-8.828125zm0 0" fill="#fb7b76"/><path d="m217.09375 429.9375s19.617188-30.734375 38.90625-32.695312c19.289062-1.960938 44.757812 41.222656 44.757812 41.222656-10.941406 13.402344-27.460937 20.992187-44.757812 20.570312-17.402344.429688-34.015625-7.273437-44.929688-20.832031zm0 0" fill="#bdc3c7"/><path d="m334.734375 459.035156c-33.839844 0-46.628906-19.84375-55.96875-34.332031-7.800781-12.109375-12.414063-18.492187-23.113281-18.628906-10.339844.140625-14.933594 6.460937-22.730469 18.464843-9.464844 14.554688-22.421875 34.496094-56.371094 34.496094-27.480469 0-49.296875-13.066406-58.355469-34.929687-8.960937-24.09375-2.300781-51.21875 16.804688-68.414063 3.464844-3.347656 8.972656-3.300781 12.375.105469 3.40625 3.40625 3.453125 8.910156.109375 12.375-13.960937 12.203125-19.097656 31.667969-12.976563 49.167969 6.234376 15.054687 21.949219 24.039062 42.042969 24.039062 24.367188 0 32.339844-12.261718 41.566407-26.464844 7.902343-12.160156 16.832031-25.90625 36.585937-26.484374.324219-.015626.632813-.007813.945313-.015626.304687.003907.609374 0 .917968.015626 20.1875.566406 29.128906 14.4375 37.039063 26.707031 9.078125 14.082031 16.914062 26.242187 41.128906 26.242187 20.09375 0 35.808594-8.984375 42.046875-24.035156 6.121094-17.5.984375-36.96875-12.976562-49.167969-2.285157-2.21875-3.199219-5.496093-2.390626-8.578125.808594-3.082031 3.214844-5.488281 6.296876-6.296875 3.082031-.808593 6.359374.105469 8.578124 2.390625 19.101563 17.199219 25.765626 44.320313 16.804688 68.414063-9.0625 21.867187-30.878906 34.929687-58.359375 34.929687zm0 0" fill="#95a5a5"/><path d="m201.710938 258.03125c-5.351563 21.125-25.316407 35.1875-47.007813 33.109375-21.695313-2.078125-38.628906-19.671875-39.871094-41.429687-1.246093-21.757813 13.570313-41.167969 34.886719-45.707032 11.226562 1.40625 21.804688 6.035156 30.453125 13.332032 11.6875 10.652343 19.304687 25.039062 21.539063 40.695312zm0 0" fill="#e57e25"/><path d="m176.550781 251.585938c0-17.0625-7.902343-30.894532-17.652343-30.894532s-17.65625 13.832032-17.65625 30.894532 7.90625 30.898437 17.65625 30.898437 17.652343-13.835937 17.652343-30.898437zm0 0" fill="#2c3e50"/><path d="m310.289062 258.03125c5.351563 21.125 25.316407 35.1875 47.011719 33.109375 21.691407-2.078125 38.625-19.671875 39.871094-41.429687 1.246094-21.757813-13.570313-41.167969-34.886719-45.707032-11.226562 1.40625-21.808594 6.035156-30.457031 13.332032-11.6875 10.652343-19.300781 25.039062-21.539063 40.695312zm0 0" fill="#e57e25"/><path d="m370.757812 251.585938c0-17.0625-7.902343-30.894532-17.652343-30.894532s-17.65625 13.832032-17.65625 30.894532 7.90625 30.898437 17.65625 30.898437 17.652343-13.835937 17.652343-30.898437zm0 0" fill="#2c3e50"/><g fill="#fff"><path d="m150.070312 233.929688c0-7.3125-7.90625-13.238282-17.65625-13.238282s-17.65625 5.925782-17.65625 13.238282 7.90625 13.242187 17.65625 13.242187 17.65625-5.929687 17.65625-13.242187zm0 0"/><path d="m344.277344 233.929688c0 7.328124-7.945313 13.242187-17.65625 13.242187-4.414063.054687-8.734375-1.273437-12.359375-3.796875 2.980469-8.421875 7.703125-16.125 13.859375-22.597656 7.980468-.457032 14.988281 5.25 16.15625 13.152344zm0 0"/></g></svg>